<svg id="Layer_1" data-name="Layer 1" xmlns="http://www.w3.org/2000/svg" viewBox="0 0 1009.38 191.13"><defs><style>.cls-1{fill:#454548;}.cls-2{fill:none;stroke:#454548;stroke-miterlimit:10;stroke-width:13.09px;}</style></defs><title>PROEACC-logo</title><path class="cls-1" d="M11.88,154.23V23H56.2c14-.18,24.46,1.77,31.37,5,14.19,6.56,23.05,21.63,23.05,39.36,0,24.29-13.47,45.74-51.05,45.74H44v41.13ZM58.32,83.67c13.48,0,20.21-4.61,20.21-15.78,0-10.63-6.56-15.42-21.45-15.42H44v31.2Z" transform="translate(-11.88 -20.56)"/><path class="cls-1" d="M187.38,154.23l-30.32-42.37h-.35v42.37H124.62V23h42.9c13.65,0,24.11,1.77,31,4.79,14.19,6.38,24.11,21.8,24.11,40.42,0,20.74-12.41,37.76-32.62,41.3l35.64,44.68ZM169.12,89c13.29,0,21.45-6.21,21.45-18.79,0-11.35-8.51-17.73-21.1-17.73H156.71V89Z" transform="translate(-11.88 -20.56)"/><path class="cls-1" d="M236.48,91.65c0-40.6,29.25-71.09,69.14-71.09,38.29,0,69.31,29.6,69.31,67.19,0,38.82-30.14,69-67.72,69C270.69,156.71,236.48,130.47,236.48,91.65Zm104.94-2.84c0-20.56-14.71-38.82-35.8-38.82C284.7,50,270,67.54,270,88.28c0,21.63,14.72,39,36.17,39C326.89,127.28,341.42,109.73,341.42,88.81Z" transform="translate(-11.88 -20.56)"/><path class="cls-1" d="M391.23,154.23V23h44.68c16.31,0,29.25,2.84,38.47,8C493,41.65,504.69,61.86,504.69,88.63c0,43.26-25.53,65.6-66.48,65.6Zm48.58-29.43c19.32,0,31.38-12.06,31.38-36,0-23.4-11.88-36.34-31.2-36.34H424.74V124.8Z" transform="translate(-11.88 -20.56)"/><path class="cls-1" d="M524.54,154.23V23H597.4V52.47H556.63V72.86h39.53v29.42H556.63V124.8H597.4v29.43Z" transform="translate(-11.88 -20.56)"/><path class="cls-1" d="M702.7,154.23l-6.38-19H650.76l-6.91,19h-36L660.51,23h26.41L739,154.23ZM674,64l-.53-.18L660,108.67h27.48Z" transform="translate(-11.88 -20.56)"/><path class="cls-1" d="M838.67,72.86C833,58.5,820.59,50,806.94,50c-20.92,0-35.1,17.9-35.1,38.29,0,21.27,14.53,39,35.28,39,13.29,0,24.64-7.45,31.55-22.16h35.1c-8.15,31.56-35.28,51.59-66.3,51.59-18.26,0-35.45-6.38-48.93-19.68-14.18-13.83-20.21-30.49-20.21-50.35,0-34.74,30-66.12,67.54-66.12,18.09,0,32.62,5,45.74,16.13C864,47.33,871.47,59.38,873.77,72.86Z" transform="translate(-11.88 -20.56)"/><path class="cls-1" d="M986.16,72.86C980.48,58.5,968.08,50,954.43,50c-20.92,0-35.11,17.9-35.11,38.29,0,21.27,14.54,39,35.28,39,13.3,0,24.64-7.45,31.56-22.16h35.1c-8.16,31.56-35.28,51.59-66.3,51.59-18.26,0-35.46-6.38-48.93-19.68-14.18-13.83-20.21-30.49-20.21-50.35,0-34.74,30-66.12,67.54-66.12,18.08,0,32.62,5,45.74,16.13,12.41,10.64,19.85,22.69,22.16,36.17Z" transform="translate(-11.88 -20.56)"/><path class="cls-1" d="M391.11,210.91V169.73H404.3a31,31,0,0,1,6.57.51c4.67,1,8.57,4.67,8.57,10.23a9.26,9.26,0,0,1-4.79,8.35c4.51,1.56,6.79,4.84,6.79,9.57a11.64,11.64,0,0,1-4.78,9.74c-3.23,2.28-5.35,2.78-11.86,2.78Zm14.25-25.54c2.62,0,4-1.11,4-3.28S408,179,405.42,179h-4.23v6.4Zm1.23,16.31c2.94,0,4.78-1.28,4.78-4,0-2.4-1.61-3.57-4.73-3.57h-5.45v7.52Z" transform="translate(-11.88 -20.56)"/><path class="cls-1" d="M427.12,210.91V169.73h10.52v41.18Z" transform="translate(-11.88 -20.56)"/><path class="cls-1" d="M443.31,191.27c0-12.74,9.19-22.31,21.71-22.31,12,0,21.75,9.29,21.75,21.09a21.27,21.27,0,0,1-21.25,21.64C454.05,211.69,443.31,203.46,443.31,191.27Zm32.95-.89c0-6.46-4.62-12.19-11.24-12.19s-11.19,5.51-11.19,12c0,6.79,4.62,12.25,11.35,12.25C471.69,202.46,476.26,197,476.26,190.38Z" transform="translate(-11.88 -20.56)"/><path class="cls-1" d="M496.57,210.91V179h-8.13v-9.24h26.72V179h-8.07v31.94Z" transform="translate(-11.88 -20.56)"/><path class="cls-1" d="M519.38,210.91V169.73H529.9v41.18Z" transform="translate(-11.88 -20.56)"/><path class="cls-1" d="M567.19,185.37a10.76,10.76,0,0,0-10-7.18c-6.57,0-11,5.62-11,12,0,6.68,4.56,12.25,11.07,12.25,4.18,0,7.74-2.34,9.91-7h11a21.73,21.73,0,0,1-36.18,10c-4.45-4.34-6.34-9.58-6.34-15.81,0-10.9,9.41-20.75,21.2-20.75A20.89,20.89,0,0,1,571.25,174q5.85,5,7,11.35Z" transform="translate(-11.88 -20.56)"/><line class="cls-2" x1="294.53" y1="158.76" x2="361.98" y2="158.76"/></svg>