<?xml version="1.0" encoding="utf-8"?>
<!-- Generator: Adobe Illustrator 21.0.0, SVG Export Plug-In . SVG Version: 6.00 Build 0)  -->
<svg version="1.1" id="logo_variation" xmlns="http://www.w3.org/2000/svg" xmlns:xlink="http://www.w3.org/1999/xlink" x="0px"
	 y="0px" viewBox="0 0 1006.4 1006.4" style="enable-background:new 0 0 1006.4 1006.4;" xml:space="preserve">
<style type="text/css">
	.st0{fill:#58595B;}
	.st1{fill:url(#SVGID_1_);}
	.st2{fill:url(#SVGID_2_);}
	.st3{fill:url(#SVGID_3_);}
	.st4{fill:url(#SVGID_4_);}
	.st5{fill:url(#SVGID_5_);}
	.st6{fill:url(#SVGID_6_);}
	.st7{fill:url(#SVGID_7_);}
	.st8{fill:url(#SVGID_8_);}
	.st9{fill:url(#SVGID_9_);}
	.st10{fill:url(#SVGID_10_);}
	.st11{fill:url(#SVGID_11_);}
	.st12{fill:url(#SVGID_12_);}
</style>
<title>32</title>
<path class="st0" d="M94.1,871.1c-2.3-2.3-5.4-3.5-8.6-3.3c-6.3-0.3-11.5,4.6-11.8,10.8c0,0.3,0,0.6,0,0.9c-0.1,3.1,1.1,6,3.3,8.2
	c2.3,2.2,5.4,3.3,8.6,3.2c3.2,0.1,6.3-1,8.6-3.2c2.2-2.1,3.4-5.1,3.3-8.2C97.5,876.3,96.3,873.3,94.1,871.1z"/>
<path class="st0" d="M105.4,960.7v12.5h-37v-11.8l5.1-0.5c3-0.3,4.5-2,4.5-5v-37c0-1.8-0.3-3-0.9-3.6c-0.8-0.7-1.9-1-3-0.9l-5.5-0.3
	v-13h27.9v59.2L105.4,960.7z"/>
<path class="st0" d="M208.7,936.8V965c-9.7,6.7-21.7,10-36,10c-14.3,0-25.5-4.5-33.6-13.5c-8-9-12.1-22.3-12.1-39.9
	c-0.1-7.1,0.9-14.2,3-21c1.7-5.6,4.4-10.8,7.9-15.4c3.2-4,7.1-7.4,11.4-10.1c8.6-5,18.4-7.5,28.3-7.3c10.2-0.1,20.3,2.1,29.5,6.4
	v26.5l-15.9,1.1v-12.2c0.1-1.2-0.1-2.3-0.6-3.4c-1.1-2-5.9-3-14.2-3c-20,0-30,12.4-30,37.2c0,26.2,9,39.2,27.1,39.2
	c7.2,0,12.7-1.2,16.5-3.7v-23.2H190l-12-0.5V919h38.8v12.4l-3.6,0.3c-1.3,0.1-2.5,0.5-3.5,1.3C209.1,933.7,208.7,935,208.7,936.8z"
	/>
<path class="st0" d="M311.6,973.1h-73.9v-12.6l5.1-0.5c3-0.3,4.5-1.8,4.5-4.4v-72.4l-8.9-0.5v-13.2h71.3v25.8l-15.9,1.1v-6.2
	c0.1-1.3-0.2-2.6-0.8-3.7c-0.5-0.7-1.8-1.1-3.7-1.1h-23v26.6h36V928h-36v29.1h25c1.9,0,3.1-0.4,3.6-1.2c0.6-1.2,0.9-2.5,0.8-3.8
	v-7.8l15.9,1.1L311.6,973.1z"/>
<path class="st0" d="M368.1,869.6l26.5,70.4h0.3l26.6-70.4h30.8v12.6l-5.1,0.5c-3.1,0.3-4.6,2.1-4.5,5.5l3.9,71.3l9.6,0.5v13.2
	h-37.5v-12.6l5.6-0.5c2.8-0.2,4.1-1.5,4-4l-3-55h-0.3l-24,62.1h-14.7l-23.7-61.5h-0.3l-3.1,57.8l10.1,0.5v13.2h-36.7v-12.6l5.6-0.5
	c2.4-0.2,3.7-1.6,3.9-4.2l4.2-72.4l-9.5-0.6v-13.2H368.1z"/>
<path class="st0" d="M592.8,973.1h-74v-12.6l5.2-0.5c3-0.3,4.5-1.8,4.5-4.4v-72.3l-8.9-0.5v-13.2h37.5v12.6l-5.1,0.5
	c-3,0.3-4.5,2-4.5,5v69.4h25.8c1.5,0,2.4-0.4,2.9-1.2c0.5-1.2,0.8-2.5,0.7-3.8v-10.9l15.9,1.1L592.8,973.1z"/>
<path class="st0" d="M636.4,887.8v51.7c0,7.3,1.7,12.4,5.2,15.3c3.5,3,8.5,4.4,14.9,4.4c6.5,0,11.5-1.6,15.1-4.8
	c3.6-3.2,5.4-7.9,5.4-14.2v-57l-9-0.5v-13.2h36.9v12.6l-5.1,0.5c-3,0.3-4.5,1.9-4.5,4.7v55.6c0,10.1-3.5,18-10.6,23.7
	c-7.1,5.7-16.8,8.6-29.3,8.6c-12.5,0-21.9-2.8-28.3-8.3s-9.6-14.3-9.6-26.4v-57.1l-9-0.5v-13.2h37.7v12.6l-5.1,0.5
	c-1.3,0.1-2.6,0.5-3.6,1.3C636.7,884.7,636.4,885.9,636.4,887.8z"/>
<path class="st0" d="M724.3,973.1v-12.6l5.6-0.5c2.7-0.2,4-1.7,4-4.4v-72.4l-8.9-0.5v-13.2h28l44,71.5h0.3v-57.8l-10.3-0.5v-13.2h38
	v12.6l-5.6,0.5c-2.5,0.2-3.7,1.8-3.7,4.8v85.6h-18.1l-45-72.5h-0.3v58.8l10.1,0.5v13.2H724.3z"/>
<path class="st0" d="M846,973.1v-12.6l5.1-0.5c3-0.3,4.5-1.8,4.5-4.4v-72.4l-8.9-0.5v-13.2h42.7c15.3,0,27.2,4,35.7,12.1
	c8.6,8.1,12.8,20.1,12.8,36c0,9.9-1.3,18.4-3.9,25.8c-2.6,7.3-6.1,13-10.6,17.2c-8.9,8.3-20,12.5-33.3,12.5L846,973.1z M874.7,884.7
	v73.5h15.9c8.9,0,15.9-3.2,20.9-9.7c5-6.4,7.5-15.8,7.5-28c0-23.9-10.1-35.8-30.3-35.8L874.7,884.7z"/>
<g id="_03_03">
	
		<linearGradient id="SVGID_1_" gradientUnits="userSpaceOnUse" x1="563.395" y1="1067.7378" x2="871.395" y2="381.7377" gradientTransform="matrix(1 0 0 -1 0 1006)">
		<stop  offset="0" style="stop-color:#FBB040"/>
		<stop  offset="1" style="stop-color:#F15A29"/>
	</linearGradient>
	<polygon class="st1" points="650.8,33.2 644,51.6 638.4,67.2 576.6,67.2 576.6,33.2 	"/>
	
		<linearGradient id="SVGID_2_" gradientUnits="userSpaceOnUse" x1="384.6947" y1="987.5121" x2="692.6947" y2="301.5121" gradientTransform="matrix(1 0 0 -1 0 1006)">
		<stop  offset="0" style="stop-color:#FBB040"/>
		<stop  offset="1" style="stop-color:#F15A29"/>
	</linearGradient>
	<polygon class="st2" points="355.6,33.2 362.4,51.6 368,67.2 429.8,67.2 429.8,33.2 	"/>
	
		<linearGradient id="SVGID_3_" gradientUnits="userSpaceOnUse" x1="305.5435" y1="953.9681" x2="613.5435" y2="267.9681" gradientTransform="matrix(1 0 0 -1 0 1006)">
		<stop  offset="0" style="stop-color:#FBB040"/>
		<stop  offset="1" style="stop-color:#F15A29"/>
	</linearGradient>
	<path class="st3" d="M756.6,441.8l-27.4-10l-11.1-4c-1.1-3.8-2.4-7.5-3.7-11.2l-0.1-0.2c-0.6-1.6-1.2-3.2-1.8-4.7
		c-0.2-0.5-0.4-1-0.6-1.5c-0.4-1.1-0.9-2.2-1.3-3.3c-0.4-0.8-0.7-1.6-1.1-2.5l-1-2.3c-0.5-1.1-1-2.1-1.5-3.2c-0.2-0.5-0.4-1-0.7-1.4
		c-0.6-1.3-1.2-2.6-1.8-3.8c-0.1-0.3-0.3-0.5-0.4-0.8c-0.7-1.4-1.4-2.9-2.2-4.3c0-0.1-0.1-0.1-0.1-0.2c-0.4-0.8-0.8-1.6-1.3-2.5
		l5-10.7l12.3-26.4l7-15l-63.3-63.3l-15,7l-26.4,12.3l-9.8,4.6l0,0l-0.9,0.4c-3.5-1.9-7-3.6-10.5-5.3c-0.1,0-0.1-0.1-0.2-0.1
		c-1.5-0.7-3-1.4-4.6-2.1l-1.5-0.7c-1.1-0.5-2.2-0.9-3.3-1.4c-0.8-0.3-1.7-0.7-2.5-1l-1.8-0.7c-0.2-0.1-0.3-0.1-0.5-0.2
		c-1.1-0.4-2.2-0.8-3.3-1.3l-1.5-0.6c-1.1-0.4-2.2-0.8-3.3-1.2l0,0v40.1l0,0l3.3,1.5c67.4,30.2,110.7,97.2,110.7,171
		c0,103.5-83.9,187.4-187.4,187.4s-187.3-83.9-187.3-187.4c0-73.8,43.3-140.8,110.7-171l3.4-1.5v-40.1c-0.8,0.2-1.5,0.5-2.3,0.8
		c-0.1,0-0.1,0.1-0.2,0.1l-4.7,1.8c-0.5,0.2-1,0.4-1.4,0.6h-0.1c-1.1,0.5-2.2,0.9-3.3,1.3c-0.8,0.4-1.7,0.7-2.5,1.1s-1.5,0.6-2.3,1
		c-1.1,0.5-2.2,1-3.3,1.5c-0.5,0.2-0.9,0.4-1.4,0.7c-1.3,0.6-2.6,1.2-3.9,1.8c-0.3,0.1-0.5,0.2-0.7,0.3c-1.5,0.7-2.9,1.5-4.3,2.2
		l-0.2,0.1c-0.8,0.4-1.6,0.8-2.5,1.3l-0.9-0.4l-9.8-4.6l-26.4-12.3l-15-7l-63.3,63.3l7,15l12.3,26.4l5,10.7
		c-2.8,5.1-5.3,10.3-7.6,15.6c-0.1,0.2-0.2,0.4-0.3,0.6c-0.6,1.5-1.3,2.9-1.9,4.3s-1.1,2.8-1.7,4.3c-0.1,0.3-0.2,0.5-0.3,0.8
		c-2.1,5.4-3.9,10.8-5.6,16.4l-11.1,4l-27.4,10l-15.5,5.7V537l15.5,5.6l27.4,10l11.1,4c0.3,0.9,0.5,1.8,0.8,2.7c0,0.1,0,0.1,0.1,0.2
		c0.5,1.5,1,3.1,1.5,4.6c0.1,0.3,0.2,0.5,0.3,0.8c0.5,1.3,0.9,2.7,1.4,4c0.2,0.5,0.4,1,0.5,1.5c0.4,1.1,0.8,2.2,1.3,3.3
		c0.3,0.8,0.6,1.5,0.9,2.3l1,2.5c0.5,1.1,0.9,2.2,1.4,3.3c0.2,0.5,0.4,1,0.6,1.5c0.7,1.5,1.4,3,2.1,4.6c0,0.1,0,0.1,0.1,0.2
		c1.7,3.5,3.4,7.1,5.3,10.5l-5,10.7l-12.3,26.4l-7,15l63.4,63.3l15-7l26.4-12.3l10.7-5c0.8,0.5,1.6,0.9,2.5,1.3
		c0.1,0,0.1,0.1,0.2,0.1c1.4,0.8,2.8,1.5,4.3,2.2c0.3,0.1,0.5,0.2,0.8,0.4c1.3,0.6,2.5,1.2,3.8,1.8l1.4,0.7c1.1,0.5,2.1,1,3.3,1.5
		l2.3,1c0.8,0.4,1.7,0.7,2.5,1.1c1.1,0.5,2.2,0.9,3.3,1.3l1.5,0.6c1.6,0.6,3.2,1.2,4.7,1.7c0.1,0,0.1,0.1,0.2,0.1
		c3.7,1.3,7.4,2.6,11.2,3.7l4,11.1l10,27.4l5.7,15.5H548l5.7-15.5l10-27.4l4-11.1c0.9-0.3,1.8-0.5,2.7-0.8c0.1,0,0.1,0,0.2-0.1
		c1.5-0.5,3.1-1,4.6-1.5l0.8-0.3c1.3-0.5,2.7-0.9,4-1.4l1.5-0.5c1.1-0.4,2.2-0.8,3.3-1.3c0.8-0.3,1.5-0.6,2.3-0.9s1.7-0.7,2.5-1
		c1.1-0.5,2.2-0.9,3.3-1.4c0.5-0.2,1-0.4,1.5-0.7c1.5-0.7,3-1.4,4.6-2.1c0.1,0,0.1-0.1,0.2-0.1c3.5-1.7,7-3.5,10.5-5.3l10.7,5
		l26.4,12.3l15,7l63.3-63.3l-7-15l-12.3-26.4l-5-10.7c1.3-2.3,2.4-4.7,3.6-7c0.1-0.2,0.2-0.3,0.3-0.5c0.6-1.3,1.3-2.6,1.9-4
		c0.2-0.4,0.4-0.8,0.5-1.2c0.5-1.1,1-2.2,1.5-3.3c0.3-0.7,0.6-1.3,0.8-1.9c0.4-0.9,0.7-1.8,1.1-2.6s0.7-1.8,1.1-2.7
		c0.3-0.7,0.5-1.3,0.8-1.9c0.4-1.1,0.9-2.3,1.3-3.4c0.1-0.4,0.3-0.8,0.5-1.2c0.5-1.4,1-2.8,1.5-4.1c0.1-0.2,0.1-0.4,0.2-0.5
		c0.8-2.5,1.7-5,2.4-7.5l11.1-4l27.4-10l15.5-5.6v-89.6L756.6,441.8z"/>
	
		<linearGradient id="SVGID_4_" gradientUnits="userSpaceOnUse" x1="342.0025" y1="970.3411" x2="650.0026" y2="284.3411" gradientTransform="matrix(1 0 0 -1 0 1006)">
		<stop  offset="0" style="stop-color:#FBB040"/>
		<stop  offset="1" style="stop-color:#F15A29"/>
	</linearGradient>
	<polygon class="st4" points="426.5,321.8 395.9,321.8 395.9,294.3 395.9,65.2 429.8,65.2 429.8,280.2 429.8,320.4 	"/>
	
		<linearGradient id="SVGID_5_" gradientUnits="userSpaceOnUse" x1="492.627" y1="1037.9686" x2="800.627" y2="351.9686" gradientTransform="matrix(1 0 0 -1 0 1006)">
		<stop  offset="0" style="stop-color:#FBB040"/>
		<stop  offset="1" style="stop-color:#F15A29"/>
	</linearGradient>
	<polygon class="st5" points="576.6,320.4 576.6,280.2 576.6,65.2 610.5,65.2 610.5,294.3 610.5,321.8 579.9,321.8 	"/>
	
		<linearGradient id="SVGID_6_" gradientUnits="userSpaceOnUse" x1="425.3617" y1="1007.7607" x2="733.3617" y2="321.7607" gradientTransform="matrix(1 0 0 -1 0 1006)">
		<stop  offset="0" style="stop-color:#FBB040"/>
		<stop  offset="1" style="stop-color:#F15A29"/>
	</linearGradient>
	<path class="st6" d="M644.9,487l-0.2,0.1V487H644.9z"/>
	
		<linearGradient id="SVGID_7_" gradientUnits="userSpaceOnUse" x1="307.0606" y1="954.6503" x2="408.8984" y2="727.8275" gradientTransform="matrix(1 0 0 -1 0 1006)">
		<stop  offset="0" style="stop-color:#FBB040"/>
		<stop  offset="1" style="stop-color:#F15A29"/>
	</linearGradient>
	<path class="st7" d="M429.8,320.4c-1.1,0.5-2.2,1-3.4,1.5"/>
	
		<linearGradient id="SVGID_8_" gradientUnits="userSpaceOnUse" x1="431.9425" y1="1010.7211" x2="739.9425" y2="324.7211" gradientTransform="matrix(1 0 0 -1 0 1006)">
		<stop  offset="0" style="stop-color:#FBB040"/>
		<stop  offset="1" style="stop-color:#F15A29"/>
	</linearGradient>
	<path class="st8" d="M579.9,321.8c-1.1-0.5-2.2-1-3.3-1.5L579.9,321.8z"/>
</g>
<g id="_03">
	
		<linearGradient id="SVGID_9_" gradientUnits="userSpaceOnUse" x1="392.7316" y1="667.3708" x2="570.7316" y2="297.3708" gradientTransform="matrix(1 0 0 -1 0 1006)">
		<stop  offset="0" style="stop-color:#FFEC00"/>
		<stop  offset="1" style="stop-color:#F36E21"/>
	</linearGradient>
	<path class="st9" d="M424.9,374.9c17,0,30.7,13.8,30.8,30.7c0,17-13.8,30.7-30.7,30.8c-17,0-30.7-13.8-30.8-30.7c0,0,0,0,0,0
		C394.2,388.6,408,374.9,424.9,374.9z"/>
	
		<linearGradient id="SVGID_10_" gradientUnits="userSpaceOnUse" x1="406.8715" y1="674.1708" x2="584.8715" y2="304.1707" gradientTransform="matrix(1 0 0 -1 0 1006)">
		<stop  offset="0" style="stop-color:#FFEC00"/>
		<stop  offset="1" style="stop-color:#F36E21"/>
	</linearGradient>
	<circle class="st10" cx="464.8" cy="452.2" r="15.8"/>
	
		<linearGradient id="SVGID_11_" gradientUnits="userSpaceOnUse" x1="442.2139" y1="691.1771" x2="620.2139" y2="321.177" gradientTransform="matrix(1 0 0 -1 0 1006)">
		<stop  offset="0" style="stop-color:#FFEC00"/>
		<stop  offset="1" style="stop-color:#F36E21"/>
	</linearGradient>
	<circle class="st11" cx="458.5" cy="348.8" r="9.6"/>
	
		<linearGradient id="SVGID_12_" gradientUnits="userSpaceOnUse" x1="415.8804" y1="678.5102" x2="593.8804" y2="308.5102" gradientTransform="matrix(1 0 0 -1 0 1006)">
		<stop  offset="0" style="stop-color:#FFEC00"/>
		<stop  offset="1" style="stop-color:#F36E21"/>
	</linearGradient>
	<path class="st12" d="M502.2,493c-97-43.9-158.7,0-158.7,0c0,7.9,0.6,15.7,1.7,23.5c18.2-14.1,44.4-10.7,58.5,7.5
		c14.1,18.2,10.7,44.4-7.5,58.5c-5.6,4.3-12.1,7.1-19.1,8.2c54,69.1,153.7,81.3,222.8,27.4c38.5-30.1,61-76.2,61-125.1
		C660.9,493,599.2,536.9,502.2,493z M551.6,537.6c-5.3,0-9.6-4.3-9.6-9.6c0-5.3,4.3-9.6,9.6-9.6c5.3,0,9.6,4.3,9.7,9.6c0,0,0,0,0,0
		C561.2,533.3,556.9,537.6,551.6,537.6z M600,571.7c-13.5,0-24.4-10.9-24.4-24.4s10.9-24.4,24.4-24.4c13.5,0,24.4,10.9,24.4,24.4
		c0,0,0,0,0,0C624.4,560.8,613.5,571.7,600,571.7C600,571.7,600,571.7,600,571.7z"/>
</g>
</svg>
