<?xml version="1.0" encoding="UTF-8" standalone="no"?>
<!-- Generator: Adobe Illustrator 21.0.0, SVG Export Plug-In . SVG Version: 6.00 Build 0)  -->

<svg
   xmlns:dc="http://purl.org/dc/elements/1.1/"
   xmlns:cc="http://creativecommons.org/ns#"
   xmlns:rdf="http://www.w3.org/1999/02/22-rdf-syntax-ns#"
   xmlns:svg="http://www.w3.org/2000/svg"
   xmlns="http://www.w3.org/2000/svg"
   xmlns:sodipodi="http://sodipodi.sourceforge.net/DTD/sodipodi-0.dtd"
   xmlns:inkscape="http://www.inkscape.org/namespaces/inkscape"
   version="1.1"
   id="logo_variation"
   x="0px"
   y="0px"
   viewBox="0 0 1006.4 250.40002"
   xml:space="preserve"
   sodipodi:docname="logo_text.svg"
   width="1006.4"
   height="250.40002"
   inkscape:version="0.92.3 (2405546, 2018-03-11)"><metadata
   id="metadata115"><rdf:RDF><cc:Work
       rdf:about=""><dc:format>image/svg+xml</dc:format><dc:type
         rdf:resource="http://purl.org/dc/dcmitype/StillImage" /><dc:title>32</dc:title></cc:Work></rdf:RDF></metadata><defs
   id="defs113" /><sodipodi:namedview
   pagecolor="#ffffff"
   bordercolor="#666666"
   borderopacity="1"
   objecttolerance="10"
   gridtolerance="10"
   guidetolerance="10"
   inkscape:pageopacity="0"
   inkscape:pageshadow="2"
   inkscape:window-width="1920"
   inkscape:window-height="1080"
   id="namedview111"
   showgrid="false"
   fit-margin-top="-200.4"
   inkscape:zoom="0.2344992"
   inkscape:cx="406.86069"
   inkscape:cy="391.7513"
   inkscape:window-x="0"
   inkscape:window-y="0"
   inkscape:window-maximized="0"
   inkscape:current-layer="logo_variation" />
<style
   type="text/css"
   id="style2">
	.st0{fill:#58595B;}
	.st1{fill:url(#SVGID_1_);}
	.st2{fill:url(#SVGID_2_);}
	.st3{fill:url(#SVGID_3_);}
	.st4{fill:url(#SVGID_4_);}
	.st5{fill:url(#SVGID_5_);}
	.st6{fill:url(#SVGID_6_);}
	.st7{fill:url(#SVGID_7_);}
	.st8{fill:url(#SVGID_8_);}
	.st9{fill:url(#SVGID_9_);}
	.st10{fill:url(#SVGID_10_);}
	.st11{fill:url(#SVGID_11_);}
	.st12{fill:url(#SVGID_12_);}
</style>
<title
   id="title4">32</title>
<path
   class="st0"
   d="m 94.1,115.09999 c -2.3,-2.3 -5.4,-3.5 -8.6,-3.3 -6.3,-0.3 -11.5,4.6 -11.8,10.8 0,0.3 0,0.6 0,0.9 -0.1,3.1 1.1,6 3.3,8.2 2.3,2.2 5.4,3.3 8.6,3.2 3.2,0.1 6.3,-1 8.6,-3.2 2.2,-2.1 3.4,-5.1 3.3,-8.2 0,-3.2 -1.2,-6.2 -3.4,-8.4 z"
   id="path6"
   inkscape:connector-curvature="0"
   style="fill:#58595b" />
<path
   class="st0"
   d="m 105.4,204.69999 v 12.5 h -37 v -11.8 l 5.1,-0.5 c 3,-0.3 4.5,-2 4.5,-5 v -37 c 0,-1.8 -0.3,-3 -0.9,-3.6 -0.8,-0.7 -1.9,-1 -3,-0.9 l -5.5,-0.3 v -13 h 27.9 v 59.2 z"
   id="path8"
   inkscape:connector-curvature="0"
   style="fill:#58595b" />
<path
   class="st0"
   d="M 208.7,180.8 V 209 c -9.7,6.7 -21.7,10 -36,10 -14.3,0 -25.5,-4.5 -33.6,-13.5 -8,-9 -12.1,-22.3 -12.1,-39.9 -0.1,-7.1 0.9,-14.2 3,-21 1.7,-5.6 4.4,-10.8 7.9,-15.4 3.2,-4 7.1,-7.4 11.4,-10.1 8.6,-5 18.4,-7.5 28.3,-7.3 10.2,-0.1 20.3,2.1 29.5,6.4 v 26.5 l -15.9,1.1 v -12.2 c 0.1,-1.2 -0.1,-2.3 -0.6,-3.4 -1.1,-2 -5.9,-3 -14.2,-3 -20,0 -30,12.4 -30,37.2 0,26.2 9,39.2 27.1,39.2 7.2,0 12.7,-1.2 16.5,-3.7 v -23.2 0 l -12,-0.5 V 163 h 38.8 v 12.4 l -3.6,0.3 c -1.3,0.1 -2.5,0.5 -3.5,1.3 -0.6,0.7 -1,2 -1,3.8 z"
   id="path10"
   inkscape:connector-curvature="0"
   style="fill:#58595b" />
<path
   class="st0"
   d="m 311.6,217.09999 h -73.9 v -12.6 l 5.1,-0.5 c 3,-0.3 4.5,-1.8 4.5,-4.4 v -72.4 l -8.9,-0.5 v -13.2 h 71.3 v 25.8 l -15.9,1.1 v -6.2 c 0.1,-1.3 -0.2,-2.6 -0.8,-3.7 -0.5,-0.7 -1.8,-1.1 -3.7,-1.1 h -23 v 26.6 h 36 v 16 h -36 v 29.1 h 25 c 1.9,0 3.1,-0.4 3.6,-1.2 0.6,-1.2 0.9,-2.5 0.8,-3.8 v -7.8 l 15.9,1.1 z"
   id="path12"
   inkscape:connector-curvature="0"
   style="fill:#58595b" />
<path
   class="st0"
   d="m 368.1,113.59999 26.5,70.4 h 0.3 l 26.6,-70.4 h 30.8 v 12.6 l -5.1,0.5 c -3.1,0.3 -4.6,2.1 -4.5,5.5 l 3.9,71.3 9.6,0.5 v 13.2 h -37.5 v -12.6 l 5.6,-0.5 c 2.8,-0.2 4.1,-1.5 4,-4 l -3,-55 H 425 l -24,62.1 h -14.7 l -23.7,-61.5 h -0.3 l -3.1,57.8 10.1,0.5 v 13.2 h -36.7 v -12.6 l 5.6,-0.5 c 2.4,-0.2 3.7,-1.6 3.9,-4.2 l 4.2,-72.4 -9.5,-0.6 v -13.2 h 31.3 z"
   id="path14"
   inkscape:connector-curvature="0"
   style="fill:#58595b" />
<path
   class="st0"
   d="m 592.8,217.09999 h -74 v -12.6 l 5.2,-0.5 c 3,-0.3 4.5,-1.8 4.5,-4.4 v -72.3 l -8.9,-0.5 v -13.2 h 37.5 v 12.6 l -5.1,0.5 c -3,0.3 -4.5,2 -4.5,5 v 69.4 h 25.8 c 1.5,0 2.4,-0.4 2.9,-1.2 0.5,-1.2 0.8,-2.5 0.7,-3.8 v -10.9 l 15.9,1.1 z"
   id="path16"
   inkscape:connector-curvature="0"
   style="fill:#58595b" />
<path
   class="st0"
   d="m 636.4,131.79999 v 51.7 c 0,7.3 1.7,12.4 5.2,15.3 3.5,3 8.5,4.4 14.9,4.4 6.5,0 11.5,-1.6 15.1,-4.8 3.6,-3.2 5.4,-7.9 5.4,-14.2 v -57 l -9,-0.5 v -13.2 h 36.9 v 12.6 l -5.1,0.5 c -3,0.3 -4.5,1.9 -4.5,4.7 v 55.6 c 0,10.1 -3.5,18 -10.6,23.7 -7.1,5.7 -16.8,8.6 -29.3,8.6 -12.5,0 -21.9,-2.8 -28.3,-8.3 -6.4,-5.5 -9.6,-14.3 -9.6,-26.4 v -57.1 l -9,-0.5 v -13.2 h 37.7 v 12.6 l -5.1,0.5 c -1.3,0.1 -2.6,0.5 -3.6,1.3 -0.8,0.6 -1.1,1.8 -1.1,3.7 z"
   id="path18"
   inkscape:connector-curvature="0"
   style="fill:#58595b" />
<path
   class="st0"
   d="m 724.3,217.09999 v -12.6 l 5.6,-0.5 c 2.7,-0.2 4,-1.7 4,-4.4 v -72.4 l -8.9,-0.5 v -13.2 h 28 l 44,71.5 h 0.3 v -57.8 l -10.3,-0.5 v -13.2 h 38 v 12.6 l -5.6,0.5 c -2.5,0.2 -3.7,1.8 -3.7,4.8 v 85.6 h -18.1 l -45,-72.5 h -0.3 v 58.8 l 10.1,0.5 v 13.2 h -38.1 z"
   id="path20"
   inkscape:connector-curvature="0"
   style="fill:#58595b" />
<path
   class="st0"
   d="m 846,217.09999 v -12.6 l 5.1,-0.5 c 3,-0.3 4.5,-1.8 4.5,-4.4 v -72.4 l -8.9,-0.5 v -13.2 h 42.7 c 15.3,0 27.2,4 35.7,12.1 8.6,8.1 12.8,20.1 12.8,36 0,9.9 -1.3,18.4 -3.9,25.8 -2.6,7.3 -6.1,13 -10.6,17.2 -8.9,8.3 -20,12.5 -33.3,12.5 z m 28.7,-88.4 v 73.5 h 15.9 c 8.9,0 15.9,-3.2 20.9,-9.7 5,-6.4 7.5,-15.8 7.5,-28 0,-23.9 -10.1,-35.8 -30.3,-35.8 z"
   id="path22"
   inkscape:connector-curvature="0"
   style="fill:#58595b" />


</svg>